<svg width="500" height="500" viewBox="0 0 500 500" fill="none" xmlns="http://www.w3.org/2000/svg">
<path d="M70 204.705L92.3097 168.423H137.422V335H97.3097V204.705H70Z" fill="#1B151B"/>
<path d="M157.656 249.43C157.656 223.264 162.614 202.651 172.529 187.591C182.595 172.53 198.745 165 220.98 165C243.214 165 259.289 172.53 269.205 187.591C279.27 202.651 284.303 223.264 284.303 249.43C284.303 275.9 279.27 296.664 269.205 311.725C259.289 326.785 243.214 335 220.98 335C198.745 335 182.595 326.785 172.529 311.725C162.614 296.664 157.656 275.9 157.656 249.43ZM246.444 249.43C246.444 234.065 244.792 222.275 241.487 214.06C238.182 205.694 231.346 201.51 220.98 201.51C210.614 201.51 203.778 205.694 200.473 214.06C197.168 222.275 195.515 234.065 195.515 249.43C195.515 259.774 196.116 268.369 197.318 275.215C198.52 281.908 200.923 287.385 204.529 291.644C208.285 295.751 213.768 297.806 220.98 297.806C228.191 297.806 233.6 295.751 237.205 291.644C240.961 287.385 243.44 281.908 244.641 275.215C245.843 268.369 246.444 259.774 246.444 249.43Z" fill="#1B151B"/>
<path d="M385.233 335L360.285 298.889L339.3 335H296.166L339.067 268.602L295 205H339.767L364.715 240.878L385.7 205H428.834L385.233 270.466L430 335H385.233Z" fill="#9355DC"/>
</svg>
